<svg id="Capa_1" data-name="Capa 1" xmlns="http://www.w3.org/2000/svg" viewBox="0 0 2168.05 210.62"><defs><style>.cls-1{stroke:#000;stroke-miterlimit:10;stroke-width:7px;}</style></defs><path class="cls-1" d="M-1901.34,527.36a28.26,28.26,0,0,1-5.44,9.69,17.34,17.34,0,0,1-7.66,5,33.53,33.53,0,0,1-10.16,1.4q-8.67,0-17.48-.47t-18.93-.46q-7.21,0-16.08.55t-18.21,1.73c.45-2.65.89-6,1.3-10.19s.81-8.71,1.16-13.71.71-10.2,1.06-15.65.66-10.75.91-15.94.49-10.08.68-14.68.35-8.53.48-11.8q14.36,1.44,26.92,2.41t22.49,1a99.5,99.5,0,0,0,10.11-.46,36.86,36.86,0,0,0,7.71-1.52,12.76,12.76,0,0,0,4.91-2.75,5.57,5.57,0,0,0,1.74-4.15,17.87,17.87,0,0,0-1.54-6.68,144.79,144.79,0,0,1-14.5,1.73q-7.67.56-17.58.55-8.19,0-17.82-.21t-22-.72q.38-11.67.72-22.67t.62-20.89q.3-9.9.53-18.57t.44-15.7q5.38-.17,9.2-.21c2.53,0,5,0,7.46,0h5.11q6.65,0,13.87,0l16.75.13a60.22,60.22,0,0,1,11.27,1,13.59,13.59,0,0,1,7,3.46,13.68,13.68,0,0,1,3.51,7,56.37,56.37,0,0,1,1,11.55c0,1.64,0,3.38-.1,5.25s-.16,3.86-.29,6l9.25.25q.76-5.49,1.44-11.84t1.21-12.05q.52-5.71.86-10.11c.23-2.93.34-4.91.34-5.92q0-3.81-2.36-5.63c-1.57-1.21-3.84-1.82-6.79-1.82q-1.54,0-8.33.21t-17.34.43q-10.54.21-24.17.42t-28.85.21c-3.66,0-7.55.12-11.66.34s-8.52.58-13.24,1.06-9.78,1-15.17,1.69-11.24,1.39-17.53,2.24l1.06,7.87c3.27-.34,6.2-.61,8.76-.81s4.88-.29,6.94-.29a33.8,33.8,0,0,1,7.7.72,10.37,10.37,0,0,1,4.68,2.28,8.15,8.15,0,0,1,2.31,4.1,26.28,26.28,0,0,1,.62,6.1q0,14.11-.14,29.9t-.53,31.89q-.39,16.11-1,31.94t-1.45,30.07q-.87,14.25-2,26.27t-2.56,20.47l1.74.17a194.91,194.91,0,0,1,21.62-3.26q10.55-1,19.31-1,9.93,0,18.54.84t16,1.91q7.41,1.05,13.68,1.9a86.77,86.77,0,0,0,11.46.85,31.55,31.55,0,0,0,11.75-2.08,19.19,19.19,0,0,0,8.81-7.4q3.62-5.32,5.64-14.55a123.82,123.82,0,0,0,2.31-23.43l-8.67-.42A77.12,77.12,0,0,1-1901.34,527.36Z" transform="translate(2048.55 -353.41)"/><path class="cls-1" d="M-1759.46,477.16a47.85,47.85,0,0,0-8.09-8.72,82.5,82.5,0,0,0-10.16-7.27q-5.49-3.35-11.51-6.3t-12.09-5.75l-11.66-5.59q-5.77-2.79-11-5.88a90.17,90.17,0,0,1-9.63-6.55,42.92,42.92,0,0,1-7.66-7.7,34.85,34.85,0,0,1-5-9.26,32.63,32.63,0,0,1-1.83-11.21,30.7,30.7,0,0,1,3.18-14,33.71,33.71,0,0,1,8.76-11,41.57,41.57,0,0,1,13.25-7.19,51.37,51.37,0,0,1,16.51-2.58,56.58,56.58,0,0,1,16.14,2.16,34.63,34.63,0,0,1,12.42,6.43,28.88,28.88,0,0,1,8,10.66,36.09,36.09,0,0,1,2.84,14.76q0,2.79-.29,5.84l9.73.42q.38-6.17.67-11.72t.44-10.23q.13-4.69.24-8.38t.09-6.13a6.05,6.05,0,0,0-2-4.31,20.62,20.62,0,0,0-5.39-3.73,49.54,49.54,0,0,0-7.76-3q-4.38-1.31-9.2-2.24t-9.63-1.4q-4.81-.47-9-.46a88.52,88.52,0,0,0-18.06,1.82,78.33,78.33,0,0,0-16.57,5.33,69.89,69.89,0,0,0-14.25,8.58,57.08,57.08,0,0,0-11.18,11.55,53.15,53.15,0,0,0-7.27,14.21,52.25,52.25,0,0,0-2.6,16.71,41.46,41.46,0,0,0,2,13.11,42.2,42.2,0,0,0,5.4,10.83,46.62,46.62,0,0,0,8.14,8.92,88.31,88.31,0,0,0,10.21,7.49q5.49,3.46,11.51,6.51t12.09,5.93q5.77,2.79,11.36,5.54t10.65,5.75a85,85,0,0,1,9.34,6.39A43.24,43.24,0,0,1-1781,493a33,33,0,0,1,4.92,8.8,30.06,30.06,0,0,1,1.78,10.53,32.2,32.2,0,0,1-3.85,15.94,35,35,0,0,1-10.36,11.55,46.62,46.62,0,0,1-15.07,7,68.93,68.93,0,0,1-18.11,2.33,71.25,71.25,0,0,1-17.19-1.91,34.6,34.6,0,0,1-13.1-6.13,27.53,27.53,0,0,1-8.38-11,40.76,40.76,0,0,1-2.94-16.36c0-1.24,0-2.48.1-3.73s.19-2.53.38-3.89l-9.73-.42q-1,14.55-1.39,25.12t-.44,16.25c0,1.69,1.21,3.34,3.61,4.94a36.84,36.84,0,0,0,9.93,4.28,99.86,99.86,0,0,0,14.69,3,132.89,132.89,0,0,0,17.91,1.14,109.78,109.78,0,0,0,15.7-1.23,99.15,99.15,0,0,0,16.95-4,86.82,86.82,0,0,0,16.33-7.36,59,59,0,0,0,13.92-11.21A51.46,51.46,0,0,0-1755.7,521a54.85,54.85,0,0,0,3.61-20.56,39.06,39.06,0,0,0-2-12.77A40.6,40.6,0,0,0-1759.46,477.16Z" transform="translate(2048.55 -353.41)"/><path class="cls-1" d="M-1522.81,367.27a10.05,10.05,0,0,0-5-4.4c-2.28-1-5.54-1.48-9.78-1.48a118.32,118.32,0,0,0-16.81,1.52q-7.61,1.14-17.45,3.23a21.19,21.19,0,0,0-1.57-5.76q-4.33.67-8.53,1.14t-9,.8q-4.86.35-10.74.51t-13.68.25q-7.8.09-17.82.13t-23.11,0q-7.8,0-16.14-.25l-16.23-.51-15-.51q-7.12-.24-12.62-.25-8.67,0-13.92,1.78a15.64,15.64,0,0,0-8,5.58,21.79,21.79,0,0,0-3.61,9.69,97.84,97.84,0,0,0-.87,14.08q0,8,.29,18.19l9.53.25v-1.94a78.39,78.39,0,0,1,1.21-14.89,32.18,32.18,0,0,1,3.51-10,17.81,17.81,0,0,1,5.69-6.09,24.56,24.56,0,0,1,7.61-3.17,46.24,46.24,0,0,1,9.34-1.18c3.4-.12,7.06-.17,11-.17s7.77,0,11.56.12,7.51.19,11.17.3q0,18.36-.19,34.64t-.48,31.34q-.3,15.06-.77,29.32t-1.06,28.55q-.59,14.29-1.26,29.14t-1.44,31l1.73.17,22.83-2.54q.48-14.55,1-30.11t1.11-31.43q.57-15.85,1.11-31.72t1-31.05q.48-15.18.91-29.39t.73-26.74q16.84,1,30.29,2.08t23.36,1.05q10.48,0,15.84-3a12.83,12.83,0,0,0,1.8-1.21c2.47-.3,4.89-.54,7.21-.69q4.62-.3,7.8-.3a28.54,28.54,0,0,1,7.56.81,8.73,8.73,0,0,1,4.38,2.58,8.89,8.89,0,0,1,2,4.61,47.16,47.16,0,0,1,.43,6.81q0,21.15-.34,41.24t-1,40.6q-.67,20.52-1.59,42.21t-2.07,46l1.73.17,22.83-2.54q.68-19.27,1.35-39t1.3-38.19q.63-18.48,1.2-34.89t1-29.06q.43-12.64.67-20.73c.16-5.38.24-8.7.24-9.94q0-5.42-.29-9.64A17.28,17.28,0,0,0-1522.81,367.27Z" transform="translate(2048.55 -353.41)"/><path class="cls-1" d="M-1349.72,526.26a30.42,30.42,0,0,1-5.45,10.33,17.59,17.59,0,0,1-7.85,5.33,33.18,33.18,0,0,1-10.45,1.52q-8.37,0-17-.47t-18.54-.46c-4.68,0-9.76.18-15.21.55s-11.27.94-17.44,1.73q1-8.53,1.78-20t1.54-24.2q.73-12.76,1.3-26.31t1-26.35q.43-12.81.77-24.27t.57-20.14q.24-8.67.34-13.91c.07-3.5.1-5.36.1-5.59q0-5.42-.29-9.64a17.28,17.28,0,0,0-1.88-7.15,10,10,0,0,0-5-4.4c-2.28-1-5.54-1.48-9.77-1.48a118.19,118.19,0,0,0-16.81,1.52q-10.17,1.53-24.32,4.74l1,7q5-.68,9.63-1c3.08-.2,5.69-.3,7.8-.3a28.58,28.58,0,0,1,7.57.81,8.73,8.73,0,0,1,4.38,2.58,9,9,0,0,1,2,4.61,45.63,45.63,0,0,1,.44,6.81q0,13.62-.1,28.25t-.39,29.7q-.29,15-.86,30.11t-1.4,29.44q-.81,14.38-2,27.7t-2.84,24.92l1.73.17a185.43,185.43,0,0,1,21-3.26q10.25-1,19-1,9.83,0,18.3.84t15.75,1.91q7.26,1.05,13.43,1.9a84.2,84.2,0,0,0,11.27.85,31.27,31.27,0,0,0,12-2.16,19.71,19.71,0,0,0,8.91-7.7q3.66-5.53,5.64-15.14a130.3,130.3,0,0,0,2.07-24.49l-8.38-.6A84.18,84.18,0,0,1-1349.72,526.26Z" transform="translate(2048.55 -353.41)"/><path class="cls-1" d="M-1164.12,380.43a75.72,75.72,0,0,0-27.88-17.6,102.69,102.69,0,0,0-35.54-5.92,97.77,97.77,0,0,0-29.19,4.14,87.27,87.27,0,0,0-24,11.59,85.25,85.25,0,0,0-18.69,17.73A105.49,105.49,0,0,0-1312.78,413a123.86,123.86,0,0,0-8.1,26.18,149.33,149.33,0,0,0-2.69,28.43q0,23,6.5,40.39a79.82,79.82,0,0,0,18.2,29.06A75.73,75.73,0,0,0-1271,554.6a102.65,102.65,0,0,0,35.54,5.93,97.75,97.75,0,0,0,29.18-4.15,86.77,86.77,0,0,0,24-11.59,85.38,85.38,0,0,0,18.68-17.72,105.76,105.76,0,0,0,13.39-22.59,123.67,123.67,0,0,0,8.09-26.18,148.42,148.42,0,0,0,2.7-28.42q0-22.94-6.5-40.35A79.89,79.89,0,0,0-1164.12,380.43Zm-4,102.27a124.84,124.84,0,0,1-5.11,21.95,83.55,83.55,0,0,1-8.71,18.49,59.08,59.08,0,0,1-12.48,14.12,53.88,53.88,0,0,1-16.32,9,60.85,60.85,0,0,1-20.33,3.22,59,59,0,0,1-25.09-5.46,56.76,56.76,0,0,1-20.66-16.58q-8.87-11.12-14-28.08t-5.15-40a174.86,174.86,0,0,1,1.68-24.66,124.11,124.11,0,0,1,5.11-22,83.24,83.24,0,0,1,8.71-18.48A58.72,58.72,0,0,1-1268,380.17a53.88,53.88,0,0,1,16.32-9.05,61.09,61.09,0,0,1,20.32-3.21,59,59,0,0,1,25.1,5.45,57,57,0,0,1,20.66,16.58q8.85,11.13,14,28.09t5.15,40A174.6,174.6,0,0,1-1168.16,482.7Z" transform="translate(2048.55 -353.41)"/><path class="cls-1" d="M-844,545.21a61.8,61.8,0,0,1-8.67.68q-6.47,0-10.07-3t-5.39-9a65.66,65.66,0,0,1-2.17-15.4q-.39-9.3-.38-22,0-16.33.43-32.19t1.4-32.06q1-16.2,2.36-33.25t3.32-35.82a37,37,0,0,0-6.45-1.82,33.88,33.88,0,0,0-6.17-.63,22,22,0,0,0-4.53.46,15.4,15.4,0,0,0-4,1.4,9.37,9.37,0,0,0-2.94,2.32,5.4,5.4,0,0,0-1.25,3.26q-.68,8.71-1.21,16t-.91,13.58q-.39,6.3-.68,11.8t-.53,10.61c-.16,3.41-.32,6.76-.48,10s-.34,6.62-.53,10.06a146.57,146.57,0,0,1-3.71,26.44A146.12,146.12,0,0,1-904.49,491a117.65,117.65,0,0,1-11.61,21,89.54,89.54,0,0,1-14.64,16.45,64.25,64.25,0,0,1-17,10.75A47.67,47.67,0,0,1-966.52,543a38.58,38.58,0,0,1-14.11-2.33,28.6,28.6,0,0,1-10-6.39,32.41,32.41,0,0,1-6.55-9.56A57.27,57.27,0,0,1-1001,513a87.42,87.42,0,0,1-1.78-13.11q-.44-6.86-.44-13.53,0-10.75.77-22.42t1.93-23.14q1.15-11.46,2.55-22.08t2.55-19.24q1.15-8.62,1.93-14.72a81.12,81.12,0,0,0,.77-8.37,26,26,0,0,0-.77-6.73,10.29,10.29,0,0,0-2.65-4.7,11.45,11.45,0,0,0-5.06-2.75,30.32,30.32,0,0,0-8-.88,109.71,109.71,0,0,0-16.71,1.6q-10.06,1.62-24.8,4.66l1.06,7.19q5.3-.67,9.48-1c2.8-.22,5.28-.34,7.47-.34a32,32,0,0,1,7.51.72,11.11,11.11,0,0,1,4.58,2.16,7,7,0,0,1,2.26,3.64,19.86,19.86,0,0,1,.58,5.07,80.31,80.31,0,0,1-.77,8.8q-.78,6.09-1.88,14.55t-2.46,18.61q-1.35,10.16-2.45,21t-1.88,21.62q-.78,10.79-.77,20.51,0,9.06.86,17.76a95,95,0,0,0,3.09,16.54,61.31,61.31,0,0,0,6.07,14.42,40.58,40.58,0,0,0,9.82,11.38,44.69,44.69,0,0,0,14.25,7.49,63,63,0,0,0,19.46,2.71,63.54,63.54,0,0,0,19.89-3.05,71.59,71.59,0,0,0,17.34-8.37,88.32,88.32,0,0,0,14.83-12.4A122.74,122.74,0,0,0-910,521.44a137.78,137.78,0,0,0,9.92-16.62A168.22,168.22,0,0,0-892.65,488l1,.17q-.78,10-1.25,19.29t-.49,17.68a98.07,98.07,0,0,0,.92,14A31.31,31.31,0,0,0-889,550a18.1,18.1,0,0,0,7.08,7.1q4.51,2.54,11.75,2.54a54,54,0,0,0,8.67-.8,102.19,102.19,0,0,0,10.06-2.25q5.25-1.43,10.74-3.38t10.69-4.31l-2.5-6.69A62.66,62.66,0,0,1-844,545.21Z" transform="translate(2048.55 -353.41)"/><path class="cls-1" d="M-650.12,544.88a38.24,38.24,0,0,1-7.32.67,33.74,33.74,0,0,1-6.83-.67,29.23,29.23,0,0,1-6.51-2.2,43.56,43.56,0,0,1-6.69-4,83.7,83.7,0,0,1-7.42-6.13q-5-4.49-10.69-10.62t-12.52-14.72q-6.84-8.58-15-20t-18.21-26.47a113.61,113.61,0,0,0,24.27-8.3,70.5,70.5,0,0,0,18.54-12.6,53.16,53.16,0,0,0,11.85-16.71,49.81,49.81,0,0,0,4.19-20.6q0-12.18-5-20.38a37.91,37.91,0,0,0-13.77-13.24A64.18,64.18,0,0,0-722,361.69a145.75,145.75,0,0,0-25.91-2.16q-10.39,0-21.72.8t-22.54,2.08q-11.22,1.26-21.86,2.79t-19.6,3l1.15,7.53a132.64,132.64,0,0,1,16.28-1.27,31.45,31.45,0,0,1,7.61.76,10.35,10.35,0,0,1,4.67,2.37,8.59,8.59,0,0,1,2.36,4.14,24,24,0,0,1,.68,6.1q0,21.13-.39,41.32t-1,40.77q-.63,20.61-1.59,42.34t-2.12,46l1.74.17,22.82-2.54q.67-19.27,1.35-38.7t1.25-37.81q.59-18.41,1.16-35.28t1-31q.43-14.18.77-25.09t.53-17.42q5.49-.6,10-.93c3-.23,6.19-.34,9.53-.34q23.41,0,35.35,9.9T-708.48,409a51.62,51.62,0,0,1-3.28,18.82,35.5,35.5,0,0,1-10.55,14.51q-7.28,6.09-19,9.64t-28.8,4.15l-.19,1.1q12.62,20,23.12,35.19t19.11,26.35q8.63,11.12,15.46,18.52a131.59,131.59,0,0,0,12,11.72c2.12,1.81,4.11,3.37,6,4.7A33.56,33.56,0,0,0-689,557a28.77,28.77,0,0,0,5.68,1.91,28.46,28.46,0,0,0,6.07.63,66,66,0,0,0,15.8-2.41,178.17,178.17,0,0,0,21.67-7.32l-2.7-6.93A64.23,64.23,0,0,1-650.12,544.88Z" transform="translate(2048.55 -353.41)"/><path class="cls-1" d="M-510.36,464.34A69.57,69.57,0,0,0-531.55,455a135.9,135.9,0,0,0-26.68-4.23V450a122,122,0,0,0,20.9-6.81,71.41,71.41,0,0,0,17.53-10.57,48.14,48.14,0,0,0,12.09-14.81,40.92,40.92,0,0,0,4.48-19.41,34.13,34.13,0,0,0-2.5-13.49,31.18,31.18,0,0,0-6.94-10.2,39.45,39.45,0,0,0-10.5-7.23,65.4,65.4,0,0,0-13.29-4.65,109.46,109.46,0,0,0-15.31-2.5q-8.1-.75-16.47-.76-10.32,0-21.34.8t-22,2.08q-10.94,1.26-21.24,2.79t-19.07,3l1,7.53a132.36,132.36,0,0,1,16.27-1.27,31.45,31.45,0,0,1,7.61.76,10.35,10.35,0,0,1,4.67,2.37,8.59,8.59,0,0,1,2.36,4.14,24,24,0,0,1,.68,6.1q0,14.11-.15,29t-.48,30q-.33,15.11-.91,30t-1.3,29q-.74,14.13-1.74,27.07t-2.26,24.11l1.73.17,18.69-2q8.76,1.28,16.52,2.12a150.51,150.51,0,0,0,16.23.84,146.46,146.46,0,0,0,20.22-1.39,109.36,109.36,0,0,0,19.07-4.36A84.55,84.55,0,0,0-516.86,545a54.94,54.94,0,0,0,13.44-11,48.51,48.51,0,0,0,8.91-14.72,51,51,0,0,0,3.22-18.61q0-12.25-5-21.23A44.54,44.54,0,0,0-510.36,464.34Zm-85.19-40.77q.33-11.67.63-21.62t.48-17.93q.18-8,.29-13.49,4.9-.67,9.77-1c3.24-.22,6.41-.33,9.49-.33A85.94,85.94,0,0,1-557,371a42.38,42.38,0,0,1,14.54,5.84,28.83,28.83,0,0,1,9.78,10.74q3.56,6.69,3.56,16.41a38.58,38.58,0,0,1-2.65,14.76,35.06,35.06,0,0,1-7.32,11.3,45,45,0,0,1-11,8.25A68.19,68.19,0,0,1-564,443.79a108.76,108.76,0,0,1-15.7,3.17,155.51,155.51,0,0,1-16.61,1.23Q-595.89,435.25-595.55,423.57ZM-522,523.18a39,39,0,0,1-12,14.21,51.82,51.82,0,0,1-18.06,8.12,92.7,92.7,0,0,1-22.35,2.58q-6.65,0-13.19-.59a109.9,109.9,0,0,1-13.78-2.2q.48-5.67,1-12.94t1-15.32q.48-8,.91-16.41t.82-16.24q.39-7.86.68-14.76t.48-12.05q3.27-.18,6.5-.3t6.31-.13A126,126,0,0,1-555.63,460a61.67,61.67,0,0,1,20.76,8.5A38.27,38.27,0,0,1-522,482.66a42.16,42.16,0,0,1,4.43,19.75Q-517.58,514.5-522,523.18Z" transform="translate(2048.55 -353.41)"/><path class="cls-1" d="M-279.19,542.85a74.26,74.26,0,0,1-7.42,1.94,33.81,33.81,0,0,1-6.65.68A28.55,28.55,0,0,1-302.5,544a21.72,21.72,0,0,1-8-5.08,42.28,42.28,0,0,1-7.37-10A110.32,110.32,0,0,1-325,512.86q-3.57-9.78-7.42-23.43t-8.18-32q-4.33-18.36-9.4-41.84t-11.12-52.82a28.48,28.48,0,0,0-5.78-1.61,35.66,35.66,0,0,0-5.49-.42,31.62,31.62,0,0,0-3.95.25,20.55,20.55,0,0,0-3.85.85,12.85,12.85,0,0,0-3.37,1.64,8.53,8.53,0,0,0-2.51,2.67q-10.5,17.43-24.27,43.35t-31.4,59.94c-4.11.06-6.16,1.21-6.16,3.47q0,1.86,2,4.65-9.63,18.36-20,38.41t-21.91,42l1.35.84c1.35.06,2.84.1,4.48.13s3,0,4.09,0q2.89,0,5.49-.12a16.77,16.77,0,0,0,4.82-.93,12.31,12.31,0,0,0,4.14-2.59,16.33,16.33,0,0,0,3.47-5q1.25-2.8,2.69-6.22c1-2.29,2.09-5,3.38-8.17s2.77-6.86,4.47-11.12l6-15q2.22-5.58,5.25-12.86t6.79-16q18.6-.93,36-1.48t35.2-.72q4.05,16.41,7.71,28.8t7.13,21.36a108.18,108.18,0,0,0,6.88,14.89,43.51,43.51,0,0,0,7,9.43,21.67,21.67,0,0,0,7.52,5,23.83,23.83,0,0,0,8.33,1.44,74.74,74.74,0,0,0,17.91-2.54,135.47,135.47,0,0,0,21.19-7.36Zm-115-74.07q-15.51.23-32.07.55,8.47-19.11,19.36-41.87t24.75-48h.58q2.41,12.69,4.91,25t4.92,23.73q2.4,11.39,4.72,21.57t4.33,18.57Q-378.69,468.58-394.2,468.78Z" transform="translate(2048.55 -353.41)"/><path class="cls-1" d="M-106.45,361.27a13.59,13.59,0,0,0-4.52,1.9,13.69,13.69,0,0,0-3.66,3.59,17,17,0,0,0-2.46,5.63A83,83,0,0,0-119,382.5c-.54,4.09-1,9.05-1.44,14.89s-.76,12.63-1,20.38-.49,16.63-.68,26.61-.32,21.18-.38,33.58-.1,26.17-.1,41.28Q-127.3,513-133.13,505t-12.33-17q-6.49-9.11-13.43-19t-14-20q-7.08-10.15-14-20.22t-13.25-19.5q-6.34-9.44-12-17.93t-10.06-15.44c-1.74-2.77-3.33-5.09-4.77-7a23.33,23.33,0,0,0-4.43-4.53,15.39,15.39,0,0,0-4.91-2.45,22.57,22.57,0,0,0-6.22-.76,72.4,72.4,0,0,0-7.75.46q-4.29.47-9.58,1.31c-3.54.57-7.48,1.27-11.85,2.12s-9.25,1.8-14.64,2.88l1.06,7.44c3.47-.45,6.56-.79,9.29-1s5.19-.33,7.37-.33a30.18,30.18,0,0,1,7.51.76,10.06,10.06,0,0,1,4.58,2.41,8.66,8.66,0,0,1,2.31,4.23,26.54,26.54,0,0,1,.63,6.22q0,6.76-.1,15.9t-.48,19.79q-.39,10.67-1.11,22.46t-1.88,24q-1.16,12.18-2.93,24.32t-4.19,23.51q-2.42,11.38-5.64,21.53a124.24,124.24,0,0,1-7.37,18.36l1.35.85,3,.12c.77,0,1.41,0,1.92,0h2.6a69.55,69.55,0,0,0,7.32-.34,14,14,0,0,0,5.3-1.57,10,10,0,0,0,3.71-3.68,23.58,23.58,0,0,0,2.5-6.64,87.34,87.34,0,0,0,1.74-10.44q.72-6.27,1.39-15.15,1-12.6,1.79-27.28t1.49-31q.67-16.33,1.11-34t.62-36.42l8.19,11.93q4.81,7,10.69,15.52L-210,437.53q6.69,9.64,13.78,19.79t14.3,20.47q7.22,10.32,14.2,20.22t13.49,19q6.5,9.15,12.09,16.84t10.06,13.66q4.48,6,7.37,9.52l1.73.17,11.76-1.36q0-8.21.09-15.94t.24-15.31q.15-7.57.34-15.15t.39-15.52q.29-9,.72-20.55t1.3-24q.87-12.48,2.36-25.16t3.9-24.16A152.16,152.16,0,0,1-96,379.24,52.72,52.72,0,0,1-87.9,364v-.84a40,40,0,0,0-13.39-2.45A23.39,23.39,0,0,0-106.45,361.27Z" transform="translate(2048.55 -353.41)"/><path class="cls-1" d="M109.5,409.53Q103,392.1,91.29,380.43a75.72,75.72,0,0,0-27.88-17.6,102.65,102.65,0,0,0-35.54-5.92,97.82,97.82,0,0,0-29.19,4.14,87.27,87.27,0,0,0-24,11.59A85,85,0,0,0-44,390.37,105.53,105.53,0,0,0-57.37,413a123.27,123.27,0,0,0-8.09,26.18,148.53,148.53,0,0,0-2.7,28.43q0,23,6.5,40.39A79.84,79.84,0,0,0-43.45,537,75.69,75.69,0,0,0-15.57,554.6,102.65,102.65,0,0,0,20,560.53a97.81,97.81,0,0,0,29.19-4.15,86.71,86.71,0,0,0,24-11.59,85.16,85.16,0,0,0,18.68-17.72,105.35,105.35,0,0,0,13.39-22.59,123.67,123.67,0,0,0,8.09-26.18,148.42,148.42,0,0,0,2.7-28.42Q116,426.94,109.5,409.53ZM87.25,482.7a124,124,0,0,1-5.11,21.95,83.55,83.55,0,0,1-8.71,18.49A58.86,58.86,0,0,1,61,537.26a53.88,53.88,0,0,1-16.32,9,60.83,60.83,0,0,1-20.32,3.22,59.05,59.05,0,0,1-25.1-5.46,56.76,56.76,0,0,1-20.66-16.58q-8.85-11.12-14-28.08t-5.15-40a174.86,174.86,0,0,1,1.68-24.66,125,125,0,0,1,5.11-22,83.69,83.69,0,0,1,8.71-18.48,58.72,58.72,0,0,1,12.48-14.13,53.88,53.88,0,0,1,16.32-9.05A61.11,61.11,0,0,1,24,367.91a59,59,0,0,1,25.09,5.45,57,57,0,0,1,20.66,16.58q8.85,11.13,14,28.09t5.15,40A174.6,174.6,0,0,1,87.25,482.7Z" transform="translate(2048.55 -353.41)"/></svg>